<mxfile host="app.diagrams.net" modified="2021-10-29T22:12:02.950Z" agent="5.0 (Macintosh)" etag="hD-t4Wyxai3viu6ceA5G" version="15.6.2" type="github">
  <diagram id="cdeWegI2rHCqs-vMcGuI" name="Page-1">
    <mxGraphModel dx="2036" dy="660" grid="1" gridSize="10" guides="1" tooltips="1" connect="1" arrows="1" fold="1" page="1" pageScale="1" pageWidth="850" pageHeight="1100" math="0" shadow="0">
      <root>
        <mxCell id="0" />
        <mxCell id="1" parent="0" />
        <mxCell id="ufk87gchy8EaRJGP1gYz-62" value="Product" style="swimlane;fontStyle=0;childLayout=stackLayout;horizontal=1;startSize=26;fillColor=none;horizontalStack=0;resizeParent=1;resizeParentMax=0;resizeLast=0;collapsible=1;marginBottom=0;" parent="1" vertex="1">
          <mxGeometry x="-110" y="80" width="140" height="208" as="geometry" />
        </mxCell>
        <mxCell id="ufk87gchy8EaRJGP1gYz-67" value="Name" style="text;strokeColor=none;fillColor=none;align=left;verticalAlign=top;spacingLeft=4;spacingRight=4;overflow=hidden;rotatable=0;points=[[0,0.5],[1,0.5]];portConstraint=eastwest;" parent="ufk87gchy8EaRJGP1gYz-62" vertex="1">
          <mxGeometry y="26" width="140" height="26" as="geometry" />
        </mxCell>
        <mxCell id="ufk87gchy8EaRJGP1gYz-63" value="Code" style="text;strokeColor=none;fillColor=none;align=left;verticalAlign=top;spacingLeft=4;spacingRight=4;overflow=hidden;rotatable=0;points=[[0,0.5],[1,0.5]];portConstraint=eastwest;" parent="ufk87gchy8EaRJGP1gYz-62" vertex="1">
          <mxGeometry y="52" width="140" height="26" as="geometry" />
        </mxCell>
        <mxCell id="ufk87gchy8EaRJGP1gYz-68" value="Price" style="text;strokeColor=none;fillColor=none;align=left;verticalAlign=top;spacingLeft=4;spacingRight=4;overflow=hidden;rotatable=0;points=[[0,0.5],[1,0.5]];portConstraint=eastwest;" parent="ufk87gchy8EaRJGP1gYz-62" vertex="1">
          <mxGeometry y="78" width="140" height="26" as="geometry" />
        </mxCell>
        <mxCell id="ufk87gchy8EaRJGP1gYz-64" value="Weight [und]" style="text;strokeColor=none;fillColor=none;align=left;verticalAlign=top;spacingLeft=4;spacingRight=4;overflow=hidden;rotatable=0;points=[[0,0.5],[1,0.5]];portConstraint=eastwest;" parent="ufk87gchy8EaRJGP1gYz-62" vertex="1">
          <mxGeometry y="104" width="140" height="26" as="geometry" />
        </mxCell>
        <object label="Units per Box&#xa;" placeholders="1" adafds="Price&#xa;" id="ufk87gchy8EaRJGP1gYz-65">
          <mxCell style="text;strokeColor=none;fillColor=none;align=left;verticalAlign=top;spacingLeft=4;spacingRight=4;overflow=hidden;rotatable=0;points=[[0,0.5],[1,0.5]];portConstraint=eastwest;" parent="ufk87gchy8EaRJGP1gYz-62" vertex="1">
            <mxGeometry y="130" width="140" height="26" as="geometry" />
          </mxCell>
        </object>
        <mxCell id="ufk87gchy8EaRJGP1gYz-72" value="Boxes per Pallet" style="text;strokeColor=none;fillColor=none;align=left;verticalAlign=top;spacingLeft=4;spacingRight=4;overflow=hidden;rotatable=0;points=[[0,0.5],[1,0.5]];portConstraint=eastwest;" parent="ufk87gchy8EaRJGP1gYz-62" vertex="1">
          <mxGeometry y="156" width="140" height="26" as="geometry" />
        </mxCell>
        <mxCell id="ufk87gchy8EaRJGP1gYz-71" value="Shell Life" style="text;strokeColor=none;fillColor=none;align=left;verticalAlign=top;spacingLeft=4;spacingRight=4;overflow=hidden;rotatable=0;points=[[0,0.5],[1,0.5]];portConstraint=eastwest;" parent="ufk87gchy8EaRJGP1gYz-62" vertex="1">
          <mxGeometry y="182" width="140" height="26" as="geometry" />
        </mxCell>
        <mxCell id="YTnr2HPFLdlH_D2PQjZW-31" style="edgeStyle=orthogonalEdgeStyle;rounded=0;orthogonalLoop=1;jettySize=auto;html=1;startArrow=diamond;startFill=1;endArrow=none;endFill=0;strokeColor=default;" edge="1" parent="1" source="ufk87gchy8EaRJGP1gYz-73">
          <mxGeometry relative="1" as="geometry">
            <mxPoint x="280" y="270" as="targetPoint" />
          </mxGeometry>
        </mxCell>
        <mxCell id="YTnr2HPFLdlH_D2PQjZW-32" value="1" style="edgeLabel;html=1;align=center;verticalAlign=middle;resizable=0;points=[];" vertex="1" connectable="0" parent="YTnr2HPFLdlH_D2PQjZW-31">
          <mxGeometry x="-0.4783" y="-1" relative="1" as="geometry">
            <mxPoint x="-19" as="offset" />
          </mxGeometry>
        </mxCell>
        <mxCell id="YTnr2HPFLdlH_D2PQjZW-33" value="*" style="edgeLabel;html=1;align=center;verticalAlign=middle;resizable=0;points=[];" vertex="1" connectable="0" parent="YTnr2HPFLdlH_D2PQjZW-31">
          <mxGeometry x="0.6957" y="2" relative="1" as="geometry">
            <mxPoint x="-22" as="offset" />
          </mxGeometry>
        </mxCell>
        <mxCell id="ufk87gchy8EaRJGP1gYz-73" value="Cart" style="swimlane;fontStyle=0;childLayout=stackLayout;horizontal=1;startSize=26;fillColor=none;horizontalStack=0;resizeParent=1;resizeParentMax=0;resizeLast=0;collapsible=1;marginBottom=0;" parent="1" vertex="1">
          <mxGeometry x="210" y="100" width="140" height="78" as="geometry" />
        </mxCell>
        <mxCell id="ufk87gchy8EaRJGP1gYz-74" value="CartItem" style="text;strokeColor=none;fillColor=none;align=left;verticalAlign=top;spacingLeft=4;spacingRight=4;overflow=hidden;rotatable=0;points=[[0,0.5],[1,0.5]];portConstraint=eastwest;" parent="ufk87gchy8EaRJGP1gYz-73" vertex="1">
          <mxGeometry y="26" width="140" height="26" as="geometry" />
        </mxCell>
        <mxCell id="ufk87gchy8EaRJGP1gYz-76" value="Total Price" style="text;strokeColor=none;fillColor=none;align=left;verticalAlign=top;spacingLeft=4;spacingRight=4;overflow=hidden;rotatable=0;points=[[0,0.5],[1,0.5]];portConstraint=eastwest;" parent="ufk87gchy8EaRJGP1gYz-73" vertex="1">
          <mxGeometry y="52" width="140" height="26" as="geometry" />
        </mxCell>
        <mxCell id="YTnr2HPFLdlH_D2PQjZW-26" style="edgeStyle=orthogonalEdgeStyle;rounded=0;orthogonalLoop=1;jettySize=auto;html=1;entryX=0.5;entryY=0;entryDx=0;entryDy=0;startArrow=diamond;startFill=1;endArrow=none;endFill=0;strokeColor=default;" edge="1" parent="1" source="ufk87gchy8EaRJGP1gYz-81" target="ufk87gchy8EaRJGP1gYz-129">
          <mxGeometry relative="1" as="geometry" />
        </mxCell>
        <mxCell id="YTnr2HPFLdlH_D2PQjZW-28" value="1" style="edgeLabel;html=1;align=center;verticalAlign=middle;resizable=0;points=[];" vertex="1" connectable="0" parent="YTnr2HPFLdlH_D2PQjZW-26">
          <mxGeometry x="-0.7822" y="2" relative="1" as="geometry">
            <mxPoint x="8" y="5" as="offset" />
          </mxGeometry>
        </mxCell>
        <mxCell id="YTnr2HPFLdlH_D2PQjZW-29" value="1" style="edgeLabel;html=1;align=center;verticalAlign=middle;resizable=0;points=[];" vertex="1" connectable="0" parent="YTnr2HPFLdlH_D2PQjZW-26">
          <mxGeometry x="0.703" y="1" relative="1" as="geometry">
            <mxPoint x="9" as="offset" />
          </mxGeometry>
        </mxCell>
        <mxCell id="ufk87gchy8EaRJGP1gYz-81" value="OrderItem" style="swimlane;fontStyle=0;childLayout=stackLayout;horizontal=1;startSize=26;fillColor=none;horizontalStack=0;resizeParent=1;resizeParentMax=0;resizeLast=0;collapsible=1;marginBottom=0;" parent="1" vertex="1">
          <mxGeometry x="200" y="280" width="140" height="104" as="geometry" />
        </mxCell>
        <mxCell id="ufk87gchy8EaRJGP1gYz-82" value="Product" style="text;strokeColor=none;fillColor=none;align=left;verticalAlign=top;spacingLeft=4;spacingRight=4;overflow=hidden;rotatable=0;points=[[0,0.5],[1,0.5]];portConstraint=eastwest;" parent="ufk87gchy8EaRJGP1gYz-81" vertex="1">
          <mxGeometry y="26" width="140" height="26" as="geometry" />
        </mxCell>
        <mxCell id="ufk87gchy8EaRJGP1gYz-83" value="Price" style="text;strokeColor=none;fillColor=none;align=left;verticalAlign=top;spacingLeft=4;spacingRight=4;overflow=hidden;rotatable=0;points=[[0,0.5],[1,0.5]];portConstraint=eastwest;" parent="ufk87gchy8EaRJGP1gYz-81" vertex="1">
          <mxGeometry y="52" width="140" height="26" as="geometry" />
        </mxCell>
        <mxCell id="ufk87gchy8EaRJGP1gYz-84" value="Quantity" style="text;strokeColor=none;fillColor=none;align=left;verticalAlign=top;spacingLeft=4;spacingRight=4;overflow=hidden;rotatable=0;points=[[0,0.5],[1,0.5]];portConstraint=eastwest;" parent="ufk87gchy8EaRJGP1gYz-81" vertex="1">
          <mxGeometry y="78" width="140" height="26" as="geometry" />
        </mxCell>
        <mxCell id="ufk87gchy8EaRJGP1gYz-89" value="User" style="swimlane;fontStyle=0;childLayout=stackLayout;horizontal=1;startSize=26;fillColor=none;horizontalStack=0;resizeParent=1;resizeParentMax=0;resizeLast=0;collapsible=1;marginBottom=0;" parent="1" vertex="1">
          <mxGeometry x="715" y="170" width="150" height="78" as="geometry" />
        </mxCell>
        <mxCell id="ufk87gchy8EaRJGP1gYz-90" value="E-Mail" style="text;strokeColor=none;fillColor=none;align=left;verticalAlign=top;spacingLeft=4;spacingRight=4;overflow=hidden;rotatable=0;points=[[0,0.5],[1,0.5]];portConstraint=eastwest;" parent="ufk87gchy8EaRJGP1gYz-89" vertex="1">
          <mxGeometry y="26" width="150" height="26" as="geometry" />
        </mxCell>
        <mxCell id="ufk87gchy8EaRJGP1gYz-96" value="Phone [Whastapp]" style="text;strokeColor=none;fillColor=none;align=left;verticalAlign=top;spacingLeft=4;spacingRight=4;overflow=hidden;rotatable=0;points=[[0,0.5],[1,0.5]];portConstraint=eastwest;" parent="ufk87gchy8EaRJGP1gYz-89" vertex="1">
          <mxGeometry y="52" width="150" height="26" as="geometry" />
        </mxCell>
        <mxCell id="ufk87gchy8EaRJGP1gYz-97" value="Perfil" style="swimlane;fontStyle=0;childLayout=stackLayout;horizontal=1;startSize=26;fillColor=none;horizontalStack=0;resizeParent=1;resizeParentMax=0;resizeLast=0;collapsible=1;marginBottom=0;" parent="1" vertex="1">
          <mxGeometry x="715" y="310" width="140" height="52" as="geometry" />
        </mxCell>
        <mxCell id="ufk87gchy8EaRJGP1gYz-104" value="Store Status" style="text;strokeColor=none;fillColor=none;align=left;verticalAlign=top;spacingLeft=4;spacingRight=4;overflow=hidden;rotatable=0;points=[[0,0.5],[1,0.5]];portConstraint=eastwest;" parent="ufk87gchy8EaRJGP1gYz-97" vertex="1">
          <mxGeometry y="26" width="140" height="26" as="geometry" />
        </mxCell>
        <mxCell id="ufk87gchy8EaRJGP1gYz-105" value="Order" style="swimlane;fontStyle=0;childLayout=stackLayout;horizontal=1;startSize=26;fillColor=none;horizontalStack=0;resizeParent=1;resizeParentMax=0;resizeLast=0;collapsible=1;marginBottom=0;" parent="1" vertex="1">
          <mxGeometry x="480" y="80" width="140" height="182" as="geometry" />
        </mxCell>
        <mxCell id="ufk87gchy8EaRJGP1gYz-106" value="Cart&#xa;" style="text;strokeColor=none;fillColor=none;align=left;verticalAlign=top;spacingLeft=4;spacingRight=4;overflow=hidden;rotatable=0;points=[[0,0.5],[1,0.5]];portConstraint=eastwest;" parent="ufk87gchy8EaRJGP1gYz-105" vertex="1">
          <mxGeometry y="26" width="140" height="26" as="geometry" />
        </mxCell>
        <mxCell id="ufk87gchy8EaRJGP1gYz-107" value="Order Number" style="text;strokeColor=none;fillColor=none;align=left;verticalAlign=top;spacingLeft=4;spacingRight=4;overflow=hidden;rotatable=0;points=[[0,0.5],[1,0.5]];portConstraint=eastwest;" parent="ufk87gchy8EaRJGP1gYz-105" vertex="1">
          <mxGeometry y="52" width="140" height="26" as="geometry" />
        </mxCell>
        <mxCell id="ufk87gchy8EaRJGP1gYz-108" value="User" style="text;strokeColor=none;fillColor=none;align=left;verticalAlign=top;spacingLeft=4;spacingRight=4;overflow=hidden;rotatable=0;points=[[0,0.5],[1,0.5]];portConstraint=eastwest;" parent="ufk87gchy8EaRJGP1gYz-105" vertex="1">
          <mxGeometry y="78" width="140" height="26" as="geometry" />
        </mxCell>
        <mxCell id="ufk87gchy8EaRJGP1gYz-109" value="Review State" style="text;strokeColor=none;fillColor=none;align=left;verticalAlign=top;spacingLeft=4;spacingRight=4;overflow=hidden;rotatable=0;points=[[0,0.5],[1,0.5]];portConstraint=eastwest;" parent="ufk87gchy8EaRJGP1gYz-105" vertex="1">
          <mxGeometry y="104" width="140" height="26" as="geometry" />
        </mxCell>
        <object label="Payment State" placeholders="1" adafds="Price&#xa;" id="ufk87gchy8EaRJGP1gYz-110">
          <mxCell style="text;strokeColor=none;fillColor=none;align=left;verticalAlign=top;spacingLeft=4;spacingRight=4;overflow=hidden;rotatable=0;points=[[0,0.5],[1,0.5]];portConstraint=eastwest;" parent="ufk87gchy8EaRJGP1gYz-105" vertex="1">
            <mxGeometry y="130" width="140" height="26" as="geometry" />
          </mxCell>
        </object>
        <mxCell id="ufk87gchy8EaRJGP1gYz-111" value="Delivery State" style="text;strokeColor=none;fillColor=none;align=left;verticalAlign=top;spacingLeft=4;spacingRight=4;overflow=hidden;rotatable=0;points=[[0,0.5],[1,0.5]];portConstraint=eastwest;" parent="ufk87gchy8EaRJGP1gYz-105" vertex="1">
          <mxGeometry y="156" width="140" height="26" as="geometry" />
        </mxCell>
        <mxCell id="ufk87gchy8EaRJGP1gYz-117" value="1" style="endArrow=none;html=1;endSize=12;startArrow=diamondThin;startSize=14;startFill=0;edgeStyle=orthogonalEdgeStyle;align=left;verticalAlign=bottom;rounded=0;endFill=0;" parent="1" edge="1">
          <mxGeometry x="-1" y="3" relative="1" as="geometry">
            <mxPoint x="620" y="210" as="sourcePoint" />
            <mxPoint x="720" y="210.5" as="targetPoint" />
            <Array as="points">
              <mxPoint x="700" y="210.5" />
              <mxPoint x="700" y="210.5" />
            </Array>
          </mxGeometry>
        </mxCell>
        <mxCell id="ufk87gchy8EaRJGP1gYz-119" value="" style="endArrow=block;startArrow=block;endFill=1;startFill=1;html=1;rounded=0;exitX=0.5;exitY=0;exitDx=0;exitDy=0;entryX=0.467;entryY=1;entryDx=0;entryDy=0;entryPerimeter=0;" parent="1" source="ufk87gchy8EaRJGP1gYz-97" target="ufk87gchy8EaRJGP1gYz-96" edge="1">
          <mxGeometry width="160" relative="1" as="geometry">
            <mxPoint x="715" y="410" as="sourcePoint" />
            <mxPoint x="790" y="250" as="targetPoint" />
          </mxGeometry>
        </mxCell>
        <mxCell id="ufk87gchy8EaRJGP1gYz-120" value="1" style="endArrow=none;html=1;endSize=12;startArrow=diamondThin;startSize=14;startFill=1;edgeStyle=orthogonalEdgeStyle;align=left;verticalAlign=bottom;rounded=0;exitX=-0.014;exitY=0.923;exitDx=0;exitDy=0;exitPerimeter=0;endFill=0;" parent="1" source="ufk87gchy8EaRJGP1gYz-106" edge="1">
          <mxGeometry x="-0.6943" y="-11" relative="1" as="geometry">
            <mxPoint x="460" y="130" as="sourcePoint" />
            <mxPoint x="360" y="130" as="targetPoint" />
            <mxPoint as="offset" />
          </mxGeometry>
        </mxCell>
        <mxCell id="ufk87gchy8EaRJGP1gYz-121" value="Packing List" style="swimlane;fontStyle=0;childLayout=stackLayout;horizontal=1;startSize=26;fillColor=none;horizontalStack=0;resizeParent=1;resizeParentMax=0;resizeLast=0;collapsible=1;marginBottom=0;" parent="1" vertex="1">
          <mxGeometry x="480" y="360" width="140" height="104" as="geometry" />
        </mxCell>
        <mxCell id="ufk87gchy8EaRJGP1gYz-123" value="User" style="text;strokeColor=none;fillColor=none;align=left;verticalAlign=top;spacingLeft=4;spacingRight=4;overflow=hidden;rotatable=0;points=[[0,0.5],[1,0.5]];portConstraint=eastwest;" parent="ufk87gchy8EaRJGP1gYz-121" vertex="1">
          <mxGeometry y="26" width="140" height="26" as="geometry" />
        </mxCell>
        <mxCell id="ufk87gchy8EaRJGP1gYz-128" value="Order" style="text;strokeColor=none;fillColor=none;align=left;verticalAlign=top;spacingLeft=4;spacingRight=4;overflow=hidden;rotatable=0;points=[[0,0.5],[1,0.5]];portConstraint=eastwest;" parent="ufk87gchy8EaRJGP1gYz-121" vertex="1">
          <mxGeometry y="52" width="140" height="26" as="geometry" />
        </mxCell>
        <mxCell id="ufk87gchy8EaRJGP1gYz-125" value="Total Weight" style="text;strokeColor=none;fillColor=none;align=left;verticalAlign=top;spacingLeft=4;spacingRight=4;overflow=hidden;rotatable=0;points=[[0,0.5],[1,0.5]];portConstraint=eastwest;" parent="ufk87gchy8EaRJGP1gYz-121" vertex="1">
          <mxGeometry y="78" width="140" height="26" as="geometry" />
        </mxCell>
        <mxCell id="ufk87gchy8EaRJGP1gYz-129" value="Storage Item" style="swimlane;fontStyle=0;childLayout=stackLayout;horizontal=1;startSize=26;fillColor=none;horizontalStack=0;resizeParent=1;resizeParentMax=0;resizeLast=0;collapsible=1;marginBottom=0;" parent="1" vertex="1">
          <mxGeometry x="200" y="485" width="140" height="130" as="geometry" />
        </mxCell>
        <mxCell id="ufk87gchy8EaRJGP1gYz-130" value="OrderItem" style="text;strokeColor=none;fillColor=none;align=left;verticalAlign=top;spacingLeft=4;spacingRight=4;overflow=hidden;rotatable=0;points=[[0,0.5],[1,0.5]];portConstraint=eastwest;" parent="ufk87gchy8EaRJGP1gYz-129" vertex="1">
          <mxGeometry y="26" width="140" height="26" as="geometry" />
        </mxCell>
        <mxCell id="ufk87gchy8EaRJGP1gYz-133" value="Total Weight" style="text;strokeColor=none;fillColor=none;align=left;verticalAlign=top;spacingLeft=4;spacingRight=4;overflow=hidden;rotatable=0;points=[[0,0.5],[1,0.5]];portConstraint=eastwest;" parent="ufk87gchy8EaRJGP1gYz-129" vertex="1">
          <mxGeometry y="52" width="140" height="26" as="geometry" />
        </mxCell>
        <mxCell id="ufk87gchy8EaRJGP1gYz-134" value="Total Price" style="text;strokeColor=none;fillColor=none;align=left;verticalAlign=top;spacingLeft=4;spacingRight=4;overflow=hidden;rotatable=0;points=[[0,0.5],[1,0.5]];portConstraint=eastwest;" parent="ufk87gchy8EaRJGP1gYz-129" vertex="1">
          <mxGeometry y="78" width="140" height="26" as="geometry" />
        </mxCell>
        <mxCell id="ufk87gchy8EaRJGP1gYz-131" value="Order" style="text;strokeColor=none;fillColor=none;align=left;verticalAlign=top;spacingLeft=4;spacingRight=4;overflow=hidden;rotatable=0;points=[[0,0.5],[1,0.5]];portConstraint=eastwest;" parent="ufk87gchy8EaRJGP1gYz-129" vertex="1">
          <mxGeometry y="104" width="140" height="26" as="geometry" />
        </mxCell>
        <mxCell id="YTnr2HPFLdlH_D2PQjZW-7" value="1" style="text;html=1;strokeColor=none;fillColor=none;align=center;verticalAlign=middle;whiteSpace=wrap;rounded=0;" vertex="1" parent="1">
          <mxGeometry x="350" y="100" width="60" height="30" as="geometry" />
        </mxCell>
        <mxCell id="YTnr2HPFLdlH_D2PQjZW-9" value="" style="endArrow=none;html=1;rounded=0;edgeStyle=orthogonalEdgeStyle;endFill=0;strokeColor=default;startArrow=diamond;startFill=1;" edge="1" parent="1">
          <mxGeometry relative="1" as="geometry">
            <mxPoint x="30" y="262" as="sourcePoint" />
            <mxPoint x="200" y="319" as="targetPoint" />
            <Array as="points">
              <mxPoint x="110" y="262" />
              <mxPoint x="110" y="320" />
              <mxPoint x="190" y="320" />
              <mxPoint x="190" y="319" />
            </Array>
          </mxGeometry>
        </mxCell>
        <mxCell id="YTnr2HPFLdlH_D2PQjZW-11" value="1" style="edgeLabel;resizable=0;html=1;align=left;verticalAlign=bottom;" connectable="0" vertex="1" parent="YTnr2HPFLdlH_D2PQjZW-9">
          <mxGeometry x="-1" relative="1" as="geometry">
            <mxPoint x="20" as="offset" />
          </mxGeometry>
        </mxCell>
        <mxCell id="YTnr2HPFLdlH_D2PQjZW-12" value="*" style="edgeLabel;resizable=0;html=1;align=right;verticalAlign=bottom;" connectable="0" vertex="1" parent="YTnr2HPFLdlH_D2PQjZW-9">
          <mxGeometry x="1" relative="1" as="geometry" />
        </mxCell>
        <mxCell id="YTnr2HPFLdlH_D2PQjZW-13" value="" style="endArrow=diamond;html=1;rounded=0;edgeStyle=orthogonalEdgeStyle;endFill=1;strokeColor=default;startArrow=none;startFill=0;" edge="1" parent="1">
          <mxGeometry relative="1" as="geometry">
            <mxPoint x="340" y="322" as="sourcePoint" />
            <mxPoint x="470" y="150" as="targetPoint" />
            <Array as="points">
              <mxPoint x="340" y="320" />
              <mxPoint x="460" y="320" />
              <mxPoint x="460" y="150" />
            </Array>
          </mxGeometry>
        </mxCell>
        <mxCell id="YTnr2HPFLdlH_D2PQjZW-14" value="1" style="edgeLabel;resizable=0;html=1;align=left;verticalAlign=bottom;" connectable="0" vertex="1" parent="YTnr2HPFLdlH_D2PQjZW-13">
          <mxGeometry x="-1" relative="1" as="geometry">
            <mxPoint x="20" y="-2" as="offset" />
          </mxGeometry>
        </mxCell>
        <mxCell id="YTnr2HPFLdlH_D2PQjZW-15" value="*" style="edgeLabel;resizable=0;html=1;align=right;verticalAlign=bottom;" connectable="0" vertex="1" parent="YTnr2HPFLdlH_D2PQjZW-13">
          <mxGeometry x="1" relative="1" as="geometry">
            <mxPoint x="-20" y="20" as="offset" />
          </mxGeometry>
        </mxCell>
        <mxCell id="YTnr2HPFLdlH_D2PQjZW-34" value="Container" style="swimlane;fontStyle=0;childLayout=stackLayout;horizontal=1;startSize=26;fillColor=none;horizontalStack=0;resizeParent=1;resizeParentMax=0;resizeLast=0;collapsible=1;marginBottom=0;" vertex="1" parent="1">
          <mxGeometry x="500" y="500" width="140" height="104" as="geometry" />
        </mxCell>
        <mxCell id="YTnr2HPFLdlH_D2PQjZW-35" value="User" style="text;strokeColor=none;fillColor=none;align=left;verticalAlign=top;spacingLeft=4;spacingRight=4;overflow=hidden;rotatable=0;points=[[0,0.5],[1,0.5]];portConstraint=eastwest;" vertex="1" parent="YTnr2HPFLdlH_D2PQjZW-34">
          <mxGeometry y="26" width="140" height="26" as="geometry" />
        </mxCell>
        <mxCell id="YTnr2HPFLdlH_D2PQjZW-36" value="Order" style="text;strokeColor=none;fillColor=none;align=left;verticalAlign=top;spacingLeft=4;spacingRight=4;overflow=hidden;rotatable=0;points=[[0,0.5],[1,0.5]];portConstraint=eastwest;" vertex="1" parent="YTnr2HPFLdlH_D2PQjZW-34">
          <mxGeometry y="52" width="140" height="26" as="geometry" />
        </mxCell>
        <mxCell id="YTnr2HPFLdlH_D2PQjZW-37" value="Total Weight" style="text;strokeColor=none;fillColor=none;align=left;verticalAlign=top;spacingLeft=4;spacingRight=4;overflow=hidden;rotatable=0;points=[[0,0.5],[1,0.5]];portConstraint=eastwest;" vertex="1" parent="YTnr2HPFLdlH_D2PQjZW-34">
          <mxGeometry y="78" width="140" height="26" as="geometry" />
        </mxCell>
        <mxCell id="YTnr2HPFLdlH_D2PQjZW-38" value="Pallet" style="swimlane;fontStyle=0;childLayout=stackLayout;horizontal=1;startSize=26;fillColor=none;horizontalStack=0;resizeParent=1;resizeParentMax=0;resizeLast=0;collapsible=1;marginBottom=0;" vertex="1" parent="1">
          <mxGeometry x="790" y="420" width="140" height="104" as="geometry" />
        </mxCell>
        <mxCell id="YTnr2HPFLdlH_D2PQjZW-39" value="User" style="text;strokeColor=none;fillColor=none;align=left;verticalAlign=top;spacingLeft=4;spacingRight=4;overflow=hidden;rotatable=0;points=[[0,0.5],[1,0.5]];portConstraint=eastwest;" vertex="1" parent="YTnr2HPFLdlH_D2PQjZW-38">
          <mxGeometry y="26" width="140" height="26" as="geometry" />
        </mxCell>
        <mxCell id="YTnr2HPFLdlH_D2PQjZW-40" value="Order" style="text;strokeColor=none;fillColor=none;align=left;verticalAlign=top;spacingLeft=4;spacingRight=4;overflow=hidden;rotatable=0;points=[[0,0.5],[1,0.5]];portConstraint=eastwest;" vertex="1" parent="YTnr2HPFLdlH_D2PQjZW-38">
          <mxGeometry y="52" width="140" height="26" as="geometry" />
        </mxCell>
        <mxCell id="YTnr2HPFLdlH_D2PQjZW-41" value="Total Weight" style="text;strokeColor=none;fillColor=none;align=left;verticalAlign=top;spacingLeft=4;spacingRight=4;overflow=hidden;rotatable=0;points=[[0,0.5],[1,0.5]];portConstraint=eastwest;" vertex="1" parent="YTnr2HPFLdlH_D2PQjZW-38">
          <mxGeometry y="78" width="140" height="26" as="geometry" />
        </mxCell>
      </root>
    </mxGraphModel>
  </diagram>
</mxfile>
